<svg width="84" height="84" viewBox="0 0 84 84" fill="none" xmlns="http://www.w3.org/2000/svg">
<g filter="url(#filter0_d_0_1)">
<rect x="4" width="76" height="76" rx="21" fill="url(#paint0_linear_0_1)"/>
</g>
<path d="M54.5861 30.1207C54.7944 31.5751 66.3561 33.1664 65.9916 30.1207C65.627 27.0751 64.7937 24.3717 63.4917 22.0105C62.2071 19.6492 60.5405 17.6559 58.4921 16.0304C56.4436 14.3878 54.0913 13.1388 51.4352 12.2833C48.7965 11.4278 45.9321 11 42.8421 11C38.1549 11 33.9364 12.0608 30.1867 14.1825C26.4369 16.2871 23.4684 19.3498 21.281 23.3707C20.4578 24.884 19.1834 26.2074 19.2761 28.2741C19.4771 32.7546 27.219 36.1499 29.9254 32.5735C30.8788 31.3136 30.6052 29.8815 31.1241 28.7091C32.2525 26.1426 33.8409 24.192 35.8894 22.8574C37.9379 21.5057 40.3422 20.8299 43.1025 20.8299C44.6301 20.8299 46.045 21.0437 47.347 21.4715C48.6663 21.8992 49.8295 22.5152 50.8363 23.3194C51.8432 24.1236 52.6678 25.0989 53.3101 26.2452C53.9524 27.3745 54.3778 28.6664 54.5861 30.1207Z" fill="white"/>
<path d="M29.7603 42.6052C27.847 38.7317 25 40 21.281 35.5C20.0414 34 18.5 30.5 18.5 30.5C18.5 30.5 18 35 18 38C18 43.7148 19.0763 48.5827 21.2289 52.6036C23.3989 56.6245 26.3501 59.6958 30.0825 61.8175C33.8323 63.9392 38.0855 65 42.8421 65C46.262 65 49.326 64.4953 52.0342 63.4857C54.7597 62.4591 57.1033 61.0732 59.0649 59.3279C61.044 57.5656 62.615 55.5722 63.7782 53.3479C64.9586 51.1065 65.6964 48.7795 65.9916 46.3669C66.2867 43.9544 54.8465 44.9125 54.5861 46.3156C54.3257 47.7186 53.857 48.9677 53.1799 50.0627C52.5202 51.1578 51.687 52.0903 50.6801 52.8603C49.6732 53.6131 48.5188 54.1863 47.2168 54.5799C45.9321 54.9734 44.5347 55.1702 43.0244 55.1702C40.3336 55.1702 37.9639 54.52 35.9155 53.2196C33.867 51.9192 32.2699 49.9943 31.1241 47.4449C30.493 46.019 30.6299 44.3658 29.7603 42.6052Z" fill="white"/>
<defs>
<filter id="filter0_d_0_1" x="0" y="0" width="84" height="84" filterUnits="userSpaceOnUse" color-interpolation-filters="sRGB">
<feFlood flood-opacity="0" result="BackgroundImageFix"/>
<feColorMatrix in="SourceAlpha" type="matrix" values="0 0 0 0 0 0 0 0 0 0 0 0 0 0 0 0 0 0 127 0" result="hardAlpha"/>
<feOffset dy="4"/>
<feGaussianBlur stdDeviation="2"/>
<feComposite in2="hardAlpha" operator="out"/>
<feColorMatrix type="matrix" values="0 0 0 0 0 0 0 0 0 0 0 0 0 0 0 0 0 0 0.25 0"/>
<feBlend mode="normal" in2="BackgroundImageFix" result="effect1_dropShadow_0_1"/>
<feBlend mode="normal" in="SourceGraphic" in2="effect1_dropShadow_0_1" result="shape"/>
</filter>
<linearGradient id="paint0_linear_0_1" x1="7" y1="4" x2="88" y2="30.5" gradientUnits="userSpaceOnUse">
<stop stop-color="#2887DE"/>
<stop offset="1" stop-color="#0BD35B"/>
</linearGradient>
</defs>
</svg>
